# xmcd
# 
# Track frame offsets:
#     150
#     19780
#     41965
#     63804
#     82132
#     103880
#     122499
#     136028
#     160491
#     178855
# 
# Disc length: 2564
# 
# Revision: 2
# Processed by: cddbd v1.5.2PL0 Copyright (c) Steve Scherf et al.
# Submitted via: fre:ac v1.0.17
# 
DISCID=870a020a
DTITLE=The Jayhawks - Hollywood Town Hall
DYEAR=1992
DGENRE=Rock
TTITLE0=Waiting For The Sun
TTITLE1=Crowded In The Wings
TTITLE2=Clouds
TTITLE3=Two Angels
TTITLE4=Take Me With You (When You Go)
TTITLE5=Sister Cry
TTITLE6=Settled Down Like Rain
TTITLE7=Wichita
TTITLE8=Nevada, California
TTITLE9=Martin's Song
EXTD=
EXTT0=
EXTT1=
EXTT2=
EXTT3=
EXTT4=
EXTT5=
EXTT6=
EXTT7=
EXTT8=
EXTT9=
PLAYORDER=
